<mxfile host="app.diagrams.net" modified="2020-06-27T11:48:03.652Z" agent="5.0 (Windows)" etag="vTuPBPyVP3bbXB5Tw5Yd" version="13.3.5" type="github">
  <diagram id="8sO8KpJlMacKgNLfJusq" name="Page-1">
    <mxGraphModel dx="1632" dy="404" grid="1" gridSize="10" guides="1" tooltips="1" connect="1" arrows="1" fold="1" page="1" pageScale="1" pageWidth="850" pageHeight="1100" math="0" shadow="0">
      <root>
        <mxCell id="0" />
        <mxCell id="1" parent="0" />
        <mxCell id="CQ1ONMJkXJyfWKpcm5dU-50" value="" style="rounded=0;whiteSpace=wrap;html=1;" vertex="1" parent="1">
          <mxGeometry x="390" y="360" width="170" height="70" as="geometry" />
        </mxCell>
        <mxCell id="CQ1ONMJkXJyfWKpcm5dU-49" value="" style="rounded=0;whiteSpace=wrap;html=1;" vertex="1" parent="1">
          <mxGeometry x="95" y="360" width="170" height="70" as="geometry" />
        </mxCell>
        <mxCell id="CQ1ONMJkXJyfWKpcm5dU-48" value="" style="rounded=0;whiteSpace=wrap;html=1;" vertex="1" parent="1">
          <mxGeometry x="620" y="260" width="170" height="70" as="geometry" />
        </mxCell>
        <mxCell id="CQ1ONMJkXJyfWKpcm5dU-47" value="" style="rounded=0;whiteSpace=wrap;html=1;" vertex="1" parent="1">
          <mxGeometry x="255" y="260" width="170" height="70" as="geometry" />
        </mxCell>
        <mxCell id="CQ1ONMJkXJyfWKpcm5dU-46" value="" style="rounded=0;whiteSpace=wrap;html=1;" vertex="1" parent="1">
          <mxGeometry x="440" y="150" width="170" height="70" as="geometry" />
        </mxCell>
        <mxCell id="CQ1ONMJkXJyfWKpcm5dU-1" value="" style="rounded=0;whiteSpace=wrap;html=1;" vertex="1" parent="1">
          <mxGeometry x="240" y="40" width="170" height="70" as="geometry" />
        </mxCell>
        <mxCell id="CQ1ONMJkXJyfWKpcm5dU-2" value="" style="rounded=0;whiteSpace=wrap;html=1;" vertex="1" parent="1">
          <mxGeometry x="-10" y="150" width="150" height="60" as="geometry" />
        </mxCell>
        <mxCell id="CQ1ONMJkXJyfWKpcm5dU-6" value="" style="endArrow=none;html=1;entryX=0;entryY=1;entryDx=0;entryDy=0;exitX=0.213;exitY=-0.007;exitDx=0;exitDy=0;exitPerimeter=0;" edge="1" parent="1" source="CQ1ONMJkXJyfWKpcm5dU-2" target="CQ1ONMJkXJyfWKpcm5dU-1">
          <mxGeometry width="50" height="50" relative="1" as="geometry">
            <mxPoint x="140" y="150" as="sourcePoint" />
            <mxPoint x="190" y="100" as="targetPoint" />
          </mxGeometry>
        </mxCell>
        <mxCell id="CQ1ONMJkXJyfWKpcm5dU-7" value="" style="endArrow=none;html=1;exitX=1;exitY=1;exitDx=0;exitDy=0;entryX=0.5;entryY=0;entryDx=0;entryDy=0;" edge="1" parent="1" source="CQ1ONMJkXJyfWKpcm5dU-1">
          <mxGeometry width="50" height="50" relative="1" as="geometry">
            <mxPoint x="540" y="140" as="sourcePoint" />
            <mxPoint x="524.9999999999998" y="150" as="targetPoint" />
          </mxGeometry>
        </mxCell>
        <mxCell id="CQ1ONMJkXJyfWKpcm5dU-8" value="" style="endArrow=none;html=1;entryX=0;entryY=1;entryDx=0;entryDy=0;exitX=0.5;exitY=0;exitDx=0;exitDy=0;" edge="1" parent="1">
          <mxGeometry width="50" height="50" relative="1" as="geometry">
            <mxPoint x="340" y="260" as="sourcePoint" />
            <mxPoint x="439.9999999999998" y="210" as="targetPoint" />
          </mxGeometry>
        </mxCell>
        <mxCell id="CQ1ONMJkXJyfWKpcm5dU-9" value="" style="endArrow=none;html=1;entryX=1;entryY=1;entryDx=0;entryDy=0;exitX=0.5;exitY=0;exitDx=0;exitDy=0;" edge="1" parent="1">
          <mxGeometry width="50" height="50" relative="1" as="geometry">
            <mxPoint x="705" y="260" as="sourcePoint" />
            <mxPoint x="609.9999999999998" y="210" as="targetPoint" />
          </mxGeometry>
        </mxCell>
        <mxCell id="CQ1ONMJkXJyfWKpcm5dU-10" value="" style="rounded=0;whiteSpace=wrap;html=1;" vertex="1" parent="1">
          <mxGeometry x="240" y="80" width="90" height="30" as="geometry" />
        </mxCell>
        <mxCell id="CQ1ONMJkXJyfWKpcm5dU-11" value="" style="rounded=0;whiteSpace=wrap;html=1;" vertex="1" parent="1">
          <mxGeometry x="330" y="80" width="80" height="30" as="geometry" />
        </mxCell>
        <mxCell id="CQ1ONMJkXJyfWKpcm5dU-12" value="" style="rounded=0;whiteSpace=wrap;html=1;" vertex="1" parent="1">
          <mxGeometry x="-10" y="190" width="70" height="20" as="geometry" />
        </mxCell>
        <mxCell id="CQ1ONMJkXJyfWKpcm5dU-13" value="" style="rounded=0;whiteSpace=wrap;html=1;" vertex="1" parent="1">
          <mxGeometry x="60" y="190" width="80" height="20" as="geometry" />
        </mxCell>
        <mxCell id="CQ1ONMJkXJyfWKpcm5dU-14" value="" style="rounded=0;whiteSpace=wrap;html=1;" vertex="1" parent="1">
          <mxGeometry x="440" y="190" width="90" height="30" as="geometry" />
        </mxCell>
        <mxCell id="CQ1ONMJkXJyfWKpcm5dU-15" value="" style="rounded=0;whiteSpace=wrap;html=1;" vertex="1" parent="1">
          <mxGeometry x="530" y="190" width="80" height="30" as="geometry" />
        </mxCell>
        <mxCell id="CQ1ONMJkXJyfWKpcm5dU-16" value="" style="rounded=0;whiteSpace=wrap;html=1;" vertex="1" parent="1">
          <mxGeometry x="255" y="300" width="90" height="30" as="geometry" />
        </mxCell>
        <mxCell id="CQ1ONMJkXJyfWKpcm5dU-17" value="" style="rounded=0;whiteSpace=wrap;html=1;" vertex="1" parent="1">
          <mxGeometry x="345" y="300" width="80" height="30" as="geometry" />
        </mxCell>
        <mxCell id="CQ1ONMJkXJyfWKpcm5dU-18" value="" style="rounded=0;whiteSpace=wrap;html=1;" vertex="1" parent="1">
          <mxGeometry x="620" y="300" width="90" height="30" as="geometry" />
        </mxCell>
        <mxCell id="CQ1ONMJkXJyfWKpcm5dU-19" value="" style="rounded=0;whiteSpace=wrap;html=1;" vertex="1" parent="1">
          <mxGeometry x="710" y="300" width="80" height="30" as="geometry" />
        </mxCell>
        <mxCell id="CQ1ONMJkXJyfWKpcm5dU-20" value="&lt;p style=&quot;line-height: 30% ; font-size: 6px&quot; align=&quot;justify&quot;&gt;&lt;/p&gt;&lt;div style=&quot;font-size: 6px&quot; align=&quot;justify&quot;&gt;&lt;b&gt;&lt;font style=&quot;font-size: 8px&quot;&gt;Question&lt;/font&gt;&lt;/b&gt;&lt;/div&gt;&lt;div style=&quot;font-size: 6px&quot; align=&quot;justify&quot;&gt;&lt;font style=&quot;font-size: 6px&quot;&gt;You&#39;re called in because you are thought to be evading taxes and you may need to serve time in prison. Anything to say?&lt;/font&gt;&lt;/div&gt;&lt;p style=&quot;font-size: 6px&quot; align=&quot;justify&quot;&gt;&lt;/p&gt;" style="text;html=1;strokeColor=none;fillColor=none;align=left;verticalAlign=middle;whiteSpace=wrap;rounded=0;" vertex="1" parent="1">
          <mxGeometry x="245" y="40" width="160" height="40" as="geometry" />
        </mxCell>
        <mxCell id="CQ1ONMJkXJyfWKpcm5dU-21" value="&lt;div style=&quot;font-size: 6px&quot; align=&quot;justify&quot;&gt;&lt;b&gt;&lt;font style=&quot;font-size: 8px&quot;&gt;Question&lt;/font&gt;&lt;/b&gt;&lt;/div&gt;&lt;div style=&quot;font-size: 6px&quot; align=&quot;justify&quot;&gt;&lt;font style=&quot;font-size: 7px&quot;&gt;That&#39;s just a red flag. Off to prison you go!&lt;/font&gt;&lt;/div&gt;&lt;p style=&quot;font-size: 6px&quot; align=&quot;justify&quot;&gt;&lt;br&gt;&lt;/p&gt;" style="text;html=1;strokeColor=none;fillColor=none;align=center;verticalAlign=middle;whiteSpace=wrap;rounded=0;" vertex="1" parent="1">
          <mxGeometry x="-10" y="167" width="140" height="20" as="geometry" />
        </mxCell>
        <mxCell id="CQ1ONMJkXJyfWKpcm5dU-23" value="&lt;p style=&quot;line-height: 30% ; font-size: 6px&quot; align=&quot;justify&quot;&gt;&lt;/p&gt;&lt;div style=&quot;font-size: 6px&quot; align=&quot;justify&quot;&gt;&lt;b&gt;&lt;font style=&quot;font-size: 8px&quot;&gt;Question&lt;/font&gt;&lt;/b&gt;&lt;/div&gt;&lt;div style=&quot;font-size: 6px&quot; align=&quot;justify&quot;&gt;&lt;font style=&quot;font-size: 8px&quot;&gt;Well then, mind explaining what it is?&lt;/font&gt;&lt;/div&gt;&lt;p style=&quot;font-size: 6px&quot; align=&quot;justify&quot;&gt;&lt;/p&gt;" style="text;html=1;strokeColor=none;fillColor=none;align=left;verticalAlign=middle;whiteSpace=wrap;rounded=0;" vertex="1" parent="1">
          <mxGeometry x="445" y="150" width="160" height="40" as="geometry" />
        </mxCell>
        <mxCell id="CQ1ONMJkXJyfWKpcm5dU-24" value="&lt;p style=&quot;line-height: 30% ; font-size: 6px&quot; align=&quot;justify&quot;&gt;&lt;/p&gt;&lt;div style=&quot;font-size: 6px&quot; align=&quot;justify&quot;&gt;&lt;b&gt;&lt;font style=&quot;font-size: 8px&quot;&gt;Question&lt;/font&gt;&lt;/b&gt;&lt;/div&gt;&lt;div style=&quot;font-size: 6px&quot; align=&quot;justify&quot;&gt;&lt;font style=&quot;font-size: 6px&quot;&gt;That&#39;s not cool. You should either retract your statement or you&#39;ll be going to jail sir.&lt;/font&gt;&lt;/div&gt;&lt;p style=&quot;font-size: 6px&quot; align=&quot;justify&quot;&gt;&lt;/p&gt;" style="text;html=1;strokeColor=none;fillColor=none;align=left;verticalAlign=middle;whiteSpace=wrap;rounded=0;" vertex="1" parent="1">
          <mxGeometry x="265" y="260" width="160" height="40" as="geometry" />
        </mxCell>
        <mxCell id="CQ1ONMJkXJyfWKpcm5dU-25" value="&lt;p style=&quot;line-height: 30% ; font-size: 6px&quot; align=&quot;justify&quot;&gt;&lt;/p&gt;&lt;div style=&quot;font-size: 6px&quot; align=&quot;justify&quot;&gt;&lt;b&gt;&lt;font style=&quot;font-size: 8px&quot;&gt;Question&lt;/font&gt;&lt;/b&gt;&lt;/div&gt;&lt;div style=&quot;font-size: 6px&quot; align=&quot;justify&quot;&gt;&lt;font style=&quot;font-size: 6px&quot;&gt;They don&#39;t look right to me but you can just pay a $500 fine for now.&lt;/font&gt;&lt;/div&gt;&lt;p style=&quot;font-size: 6px&quot; align=&quot;justify&quot;&gt;&lt;/p&gt;" style="text;html=1;strokeColor=none;fillColor=none;align=left;verticalAlign=middle;whiteSpace=wrap;rounded=0;" vertex="1" parent="1">
          <mxGeometry x="625" y="260" width="160" height="40" as="geometry" />
        </mxCell>
        <mxCell id="CQ1ONMJkXJyfWKpcm5dU-35" value="" style="rounded=0;whiteSpace=wrap;html=1;" vertex="1" parent="1">
          <mxGeometry x="95" y="400" width="90" height="30" as="geometry" />
        </mxCell>
        <mxCell id="CQ1ONMJkXJyfWKpcm5dU-36" value="" style="rounded=0;whiteSpace=wrap;html=1;" vertex="1" parent="1">
          <mxGeometry x="185" y="400" width="80" height="30" as="geometry" />
        </mxCell>
        <mxCell id="CQ1ONMJkXJyfWKpcm5dU-38" value="" style="rounded=0;whiteSpace=wrap;html=1;" vertex="1" parent="1">
          <mxGeometry x="390" y="400" width="90" height="30" as="geometry" />
        </mxCell>
        <mxCell id="CQ1ONMJkXJyfWKpcm5dU-39" value="" style="rounded=0;whiteSpace=wrap;html=1;" vertex="1" parent="1">
          <mxGeometry x="480" y="400" width="80" height="30" as="geometry" />
        </mxCell>
        <mxCell id="CQ1ONMJkXJyfWKpcm5dU-40" value="" style="endArrow=none;html=1;entryX=0;entryY=1;entryDx=0;entryDy=0;exitX=0.5;exitY=0;exitDx=0;exitDy=0;" edge="1" parent="1" target="CQ1ONMJkXJyfWKpcm5dU-16">
          <mxGeometry width="50" height="50" relative="1" as="geometry">
            <mxPoint x="180" y="360" as="sourcePoint" />
            <mxPoint x="180" y="300" as="targetPoint" />
          </mxGeometry>
        </mxCell>
        <mxCell id="CQ1ONMJkXJyfWKpcm5dU-41" value="" style="endArrow=none;html=1;exitX=0.5;exitY=0;exitDx=0;exitDy=0;entryX=1;entryY=1;entryDx=0;entryDy=0;" edge="1" parent="1" target="CQ1ONMJkXJyfWKpcm5dU-17">
          <mxGeometry width="50" height="50" relative="1" as="geometry">
            <mxPoint x="474.9999999999998" y="360" as="sourcePoint" />
            <mxPoint x="424" y="323" as="targetPoint" />
          </mxGeometry>
        </mxCell>
        <mxCell id="CQ1ONMJkXJyfWKpcm5dU-42" value="&lt;p style=&quot;line-height: 30% ; font-size: 6px&quot; align=&quot;justify&quot;&gt;&lt;/p&gt;&lt;div style=&quot;font-size: 6px&quot; align=&quot;justify&quot;&gt;&lt;b&gt;&lt;font style=&quot;font-size: 8px&quot;&gt;Question&lt;/font&gt;&lt;/b&gt;&lt;/div&gt;&lt;div style=&quot;font-size: 6px&quot; align=&quot;justify&quot;&gt;&lt;font style=&quot;font-size: 6px&quot;&gt;Well Suit yourself. Have fun in prison!&lt;/font&gt;&lt;/div&gt;&lt;p style=&quot;font-size: 6px&quot; align=&quot;justify&quot;&gt;&lt;/p&gt;" style="text;html=1;strokeColor=none;fillColor=none;align=left;verticalAlign=middle;whiteSpace=wrap;rounded=0;" vertex="1" parent="1">
          <mxGeometry x="100" y="360" width="160" height="40" as="geometry" />
        </mxCell>
        <mxCell id="CQ1ONMJkXJyfWKpcm5dU-43" value="&lt;p style=&quot;line-height: 30% ; font-size: 6px&quot; align=&quot;justify&quot;&gt;&lt;/p&gt;&lt;div style=&quot;font-size: 6px&quot; align=&quot;justify&quot;&gt;&lt;b&gt;&lt;font style=&quot;font-size: 8px&quot;&gt;Question&lt;/font&gt;&lt;/b&gt;&lt;/div&gt;&lt;div style=&quot;font-size: 6px&quot; align=&quot;justify&quot;&gt;&lt;font style=&quot;font-size: 6px&quot;&gt;Good. Now we&#39;ll just give you $1000 in fine so don&#39;t do it ever again!&lt;/font&gt;&lt;/div&gt;&lt;p style=&quot;font-size: 6px&quot; align=&quot;justify&quot;&gt;&lt;/p&gt;" style="text;html=1;strokeColor=none;fillColor=none;align=left;verticalAlign=middle;whiteSpace=wrap;rounded=0;" vertex="1" parent="1">
          <mxGeometry x="395" y="360" width="160" height="40" as="geometry" />
        </mxCell>
        <mxCell id="CQ1ONMJkXJyfWKpcm5dU-44" value="&lt;div style=&quot;font-size: 6px&quot; align=&quot;justify&quot;&gt;&lt;b&gt;&lt;font style=&quot;font-size: 6px&quot;&gt;Response A&lt;/font&gt;&lt;/b&gt;&lt;/div&gt;&lt;div style=&quot;font-size: 6px&quot; align=&quot;justify&quot;&gt;&lt;font style=&quot;font-size: 6px&quot;&gt;You are making a grave mistake&lt;/font&gt;&lt;/div&gt;" style="text;html=1;strokeColor=none;fillColor=none;align=left;verticalAlign=middle;whiteSpace=wrap;rounded=0;" vertex="1" parent="1">
          <mxGeometry x="245" y="85" width="80" height="20" as="geometry" />
        </mxCell>
        <mxCell id="CQ1ONMJkXJyfWKpcm5dU-51" value="&lt;div style=&quot;font-size: 6px&quot; align=&quot;justify&quot;&gt;&lt;b&gt;&lt;font style=&quot;font-size: 6px&quot;&gt;Response B&lt;br&gt;&lt;/font&gt;&lt;/b&gt;&lt;/div&gt;&lt;div style=&quot;font-size: 6px&quot; align=&quot;justify&quot;&gt;&lt;font style=&quot;font-size: 6px&quot;&gt;I have my reasons&lt;/font&gt;&lt;/div&gt;" style="text;html=1;strokeColor=none;fillColor=none;align=left;verticalAlign=middle;whiteSpace=wrap;rounded=0;" vertex="1" parent="1">
          <mxGeometry x="330" y="85" width="80" height="20" as="geometry" />
        </mxCell>
        <mxCell id="CQ1ONMJkXJyfWKpcm5dU-52" value="&lt;div style=&quot;font-size: 6px&quot; align=&quot;justify&quot;&gt;&lt;b&gt;&lt;font style=&quot;font-size: 6px&quot;&gt;Response A&lt;/font&gt;&lt;/b&gt;&lt;/div&gt;&lt;div style=&quot;font-size: 6px&quot; align=&quot;justify&quot;&gt;&lt;font style=&quot;font-size: 6px&quot;&gt;You are making a grave mistake&lt;/font&gt;&lt;/div&gt;" style="text;html=1;strokeColor=none;fillColor=none;align=left;verticalAlign=middle;whiteSpace=wrap;rounded=0;" vertex="1" parent="1">
          <mxGeometry x="445" y="195" width="80" height="20" as="geometry" />
        </mxCell>
        <mxCell id="CQ1ONMJkXJyfWKpcm5dU-53" value="&lt;div style=&quot;font-size: 6px&quot; align=&quot;justify&quot;&gt;&lt;b&gt;&lt;font style=&quot;font-size: 6px&quot;&gt;Response A&lt;/font&gt;&lt;/b&gt;&lt;/div&gt;&lt;div style=&quot;font-size: 6px&quot; align=&quot;justify&quot;&gt;&lt;font style=&quot;font-size: 6px&quot;&gt;You are making a grave mistake&lt;/font&gt;&lt;/div&gt;" style="text;html=1;strokeColor=none;fillColor=none;align=left;verticalAlign=middle;whiteSpace=wrap;rounded=0;" vertex="1" parent="1">
          <mxGeometry x="530" y="195" width="80" height="20" as="geometry" />
        </mxCell>
        <mxCell id="CQ1ONMJkXJyfWKpcm5dU-54" value="&lt;div style=&quot;font-size: 6px&quot; align=&quot;justify&quot;&gt;&lt;b&gt;&lt;font style=&quot;font-size: 6px&quot;&gt;Response A&lt;/font&gt;&lt;/b&gt;&lt;/div&gt;&lt;div style=&quot;font-size: 6px&quot; align=&quot;justify&quot;&gt;&lt;font style=&quot;font-size: 6px&quot;&gt;You are making a grave mistake&lt;/font&gt;&lt;/div&gt;" style="text;html=1;strokeColor=none;fillColor=none;align=left;verticalAlign=middle;whiteSpace=wrap;rounded=0;" vertex="1" parent="1">
          <mxGeometry x="260" y="305" width="80" height="20" as="geometry" />
        </mxCell>
        <mxCell id="CQ1ONMJkXJyfWKpcm5dU-55" value="&lt;div style=&quot;font-size: 6px&quot; align=&quot;justify&quot;&gt;&lt;b&gt;&lt;font style=&quot;font-size: 6px&quot;&gt;Response A&lt;/font&gt;&lt;/b&gt;&lt;/div&gt;&lt;div style=&quot;font-size: 6px&quot; align=&quot;justify&quot;&gt;&lt;font style=&quot;font-size: 6px&quot;&gt;You are making a grave mistake&lt;/font&gt;&lt;/div&gt;" style="text;html=1;strokeColor=none;fillColor=none;align=left;verticalAlign=middle;whiteSpace=wrap;rounded=0;" vertex="1" parent="1">
          <mxGeometry x="345" y="305" width="80" height="20" as="geometry" />
        </mxCell>
        <mxCell id="CQ1ONMJkXJyfWKpcm5dU-56" value="&lt;div style=&quot;font-size: 6px&quot; align=&quot;justify&quot;&gt;&lt;b&gt;&lt;font style=&quot;font-size: 6px&quot;&gt;Response A&lt;/font&gt;&lt;/b&gt;&lt;/div&gt;&lt;div style=&quot;font-size: 6px&quot; align=&quot;justify&quot;&gt;&lt;font style=&quot;font-size: 6px&quot;&gt;You are making a grave mistake&lt;/font&gt;&lt;/div&gt;" style="text;html=1;strokeColor=none;fillColor=none;align=left;verticalAlign=middle;whiteSpace=wrap;rounded=0;" vertex="1" parent="1">
          <mxGeometry x="625" y="305" width="80" height="20" as="geometry" />
        </mxCell>
        <mxCell id="CQ1ONMJkXJyfWKpcm5dU-57" value="&lt;div style=&quot;font-size: 6px&quot; align=&quot;justify&quot;&gt;&lt;b&gt;&lt;font style=&quot;font-size: 6px&quot;&gt;Response A&lt;/font&gt;&lt;/b&gt;&lt;/div&gt;&lt;div style=&quot;font-size: 6px&quot; align=&quot;justify&quot;&gt;&lt;font style=&quot;font-size: 6px&quot;&gt;You are making a grave mistake&lt;/font&gt;&lt;/div&gt;" style="text;html=1;strokeColor=none;fillColor=none;align=left;verticalAlign=middle;whiteSpace=wrap;rounded=0;" vertex="1" parent="1">
          <mxGeometry x="710" y="305" width="80" height="20" as="geometry" />
        </mxCell>
        <mxCell id="CQ1ONMJkXJyfWKpcm5dU-58" value="&lt;div style=&quot;font-size: 6px&quot; align=&quot;justify&quot;&gt;&lt;b&gt;&lt;font style=&quot;font-size: 6px&quot;&gt;Response A&lt;/font&gt;&lt;/b&gt;&lt;/div&gt;&lt;div style=&quot;font-size: 6px&quot; align=&quot;justify&quot;&gt;&lt;font style=&quot;font-size: 6px&quot;&gt;You are making a grave mistake&lt;/font&gt;&lt;/div&gt;" style="text;html=1;strokeColor=none;fillColor=none;align=left;verticalAlign=middle;whiteSpace=wrap;rounded=0;" vertex="1" parent="1">
          <mxGeometry x="100" y="405" width="80" height="20" as="geometry" />
        </mxCell>
        <mxCell id="CQ1ONMJkXJyfWKpcm5dU-59" value="&lt;div style=&quot;font-size: 6px&quot; align=&quot;justify&quot;&gt;&lt;b&gt;&lt;font style=&quot;font-size: 6px&quot;&gt;Response A&lt;/font&gt;&lt;/b&gt;&lt;/div&gt;&lt;div style=&quot;font-size: 6px&quot; align=&quot;justify&quot;&gt;&lt;font style=&quot;font-size: 6px&quot;&gt;You are making a grave mistake&lt;/font&gt;&lt;/div&gt;" style="text;html=1;strokeColor=none;fillColor=none;align=left;verticalAlign=middle;whiteSpace=wrap;rounded=0;" vertex="1" parent="1">
          <mxGeometry x="185" y="405" width="80" height="20" as="geometry" />
        </mxCell>
        <mxCell id="CQ1ONMJkXJyfWKpcm5dU-60" value="&lt;div style=&quot;font-size: 6px&quot; align=&quot;justify&quot;&gt;&lt;b&gt;&lt;font style=&quot;font-size: 6px&quot;&gt;Response A&lt;/font&gt;&lt;/b&gt;&lt;/div&gt;&lt;div style=&quot;font-size: 6px&quot; align=&quot;justify&quot;&gt;&lt;font style=&quot;font-size: 6px&quot;&gt;You are making a grave mistake&lt;/font&gt;&lt;/div&gt;" style="text;html=1;strokeColor=none;fillColor=none;align=left;verticalAlign=middle;whiteSpace=wrap;rounded=0;" vertex="1" parent="1">
          <mxGeometry x="395" y="405" width="80" height="20" as="geometry" />
        </mxCell>
        <mxCell id="CQ1ONMJkXJyfWKpcm5dU-61" value="&lt;div style=&quot;font-size: 6px&quot; align=&quot;justify&quot;&gt;&lt;b&gt;&lt;font style=&quot;font-size: 6px&quot;&gt;Response A&lt;/font&gt;&lt;/b&gt;&lt;/div&gt;&lt;div style=&quot;font-size: 6px&quot; align=&quot;justify&quot;&gt;&lt;font style=&quot;font-size: 6px&quot;&gt;You are making a grave mistake&lt;/font&gt;&lt;/div&gt;" style="text;html=1;strokeColor=none;fillColor=none;align=left;verticalAlign=middle;whiteSpace=wrap;rounded=0;" vertex="1" parent="1">
          <mxGeometry x="480" y="405" width="80" height="20" as="geometry" />
        </mxCell>
      </root>
    </mxGraphModel>
  </diagram>
</mxfile>
